<?xml version="1.0" ?><!DOCTYPE svg  PUBLIC '-//W3C//DTD SVG 1.1//EN'  'http://www.w3.org/Graphics/SVG/1.1/DTD/svg11.dtd'><svg enable-background="new 0 0 70 70" id="Layer_1" version="1.1" viewBox="0 0 70 70" xml:space="preserve" xmlns="http://www.w3.org/2000/svg" xmlns:xlink="http://www.w3.org/1999/xlink"><g><path d="M21.8330078,65.5712891c-0.0556641,0-0.1113281-0.0019531-0.1669922-0.0068359   c-0.9179688-0.0742188-1.7636719-0.7626953-2.1542969-1.7529297c-0.3095703-0.7880859-0.3144531-1.609375-0.3183594-2.3349609   c-0.0166016-3.5878906-0.0175781-7.234375-0.0185547-10.8808594c-0.0009766-3.6445313-0.0019531-7.2890625-0.0185547-10.8730469   c-0.0019531-0.4150391,0.3320313-0.7519531,0.7460938-0.7539063c0.0019531,0,0.0029297,0,0.0039063,0   c0.4130859,0,0.7480469,0.3330078,0.75,0.7460938c0.0166016,3.5878906,0.0175781,7.234375,0.0185547,10.8808594   c0.0009766,3.6445313,0.0019531,7.2890625,0.0185547,10.8730469c0.0039063,0.6220703,0.0068359,1.2666016,0.2148438,1.7919922   c0.1757813,0.4492188,0.5380859,0.78125,0.8798828,0.8095703c0.4609375,0.03125,0.8583984-0.3837891,1.0410156-0.7949219   c0.2558594-0.5751953,0.2607422-1.2900391,0.2646484-1.9804688c0.0263672-3.8300781,0.0449219-7.3564453,0.0644531-10.890625   c0.0175781-3.3632813,0.0361328-6.7333984,0.0605469-10.3779297c0.0029297-0.4130859,0.3378906-0.7451172,0.75-0.7451172   c0.0019531,0,0.0029297,0,0.0048828,0c0.4140625,0.0029297,0.7480469,0.3408203,0.7451172,0.7548828   c-0.0244141,3.6445313-0.0429688,7.0136719-0.0605469,10.3759766c-0.0195313,3.5351563-0.0380859,7.0625-0.0644531,10.8925781   c-0.0048828,0.8056641-0.0107422,1.7177734-0.3935547,2.5791016C23.75,64.8984375,22.7939453,65.5712891,21.8330078,65.5712891z" fill="#37476C"/><path d="M47.9726563,66.0615234c-0.0048828,0-0.0097656,0-0.0146484,0   c-0.8798828-0.0058594-1.7050781-0.6103516-2.1015625-1.5410156c-0.3066406-0.7207031-0.3183594-1.4746094-0.3291016-2.1396484   c-0.0537109-3.5976563-0.1171875-7.4560547-0.1796875-11.3144531c-0.0634766-3.8554688-0.1259766-7.7109375-0.1806641-11.3046875   C45.1611328,39.3466797,45.4912109,39.0058594,45.9052734,39c0.0039063,0,0.0078125,0,0.0117188,0   c0.4091797,0,0.7441406,0.328125,0.75,0.7382813c0.0537109,3.59375,0.1171875,7.4482422,0.1796875,11.3037109   c0.0634766,3.859375,0.1259766,7.7177734,0.1806641,11.3154297c0.0087891,0.5527344,0.0175781,1.125,0.2089844,1.5751953   c0.1552734,0.3623047,0.4628906,0.6269531,0.7324219,0.6289063c0.0009766,0,0.0019531,0,0.0029297,0   c0.2714844,0,0.5888672-0.2734375,0.7402344-0.6376953c0.1933594-0.4619141,0.1943359-1.0419922,0.1953125-1.6035156   c0.0058594-3.7490234,0.0371094-7.5488281,0.0673828-11.3476563c0.0302734-3.7587891,0.0615234-7.5166016,0.0673828-11.2236328   C49.0429688,39.3349609,49.3779297,39,49.7919922,39h0.0009766c0.4140625,0.0009766,0.75,0.3369141,0.7490234,0.7509766   c-0.0058594,3.7109375-0.0371094,7.4716797-0.0673828,11.2333984c-0.0302734,3.7958984-0.0615234,7.5927734-0.0673828,11.3378906   c-0.0009766,0.6425781-0.0019531,1.4414063-0.3105469,2.1796875   C49.7060547,65.4365234,48.8535156,66.0615234,47.9726563,66.0615234z" fill="#37476C"/><path d="M24.5693359,48.4433594c-0.3935547,0-0.7236328-0.3066406-0.7480469-0.7050781   c-0.0244141-0.4130859,0.2900391-0.7685547,0.7041016-0.7939453c7.0742188-0.4257813,14.2519531-0.4785156,21.3330078-0.1582031   c0.4140625,0.0185547,0.7333984,0.3691406,0.7148438,0.7832031s-0.3701172,0.75-0.7832031,0.7148438   c-7.0283203-0.3193359-14.1533203-0.265625-21.1748047,0.1582031   C24.5996094,48.4433594,24.5849609,48.4433594,24.5693359,48.4433594z" fill="#37476C"/><path d="M24.75,53.0585938c-0.4091797,0-0.7431641-0.328125-0.75-0.7382813   c-0.0068359-0.4140625,0.3242188-0.7548828,0.7382813-0.7617188l20.5029297-0.3212891   c0.4091797,0.0244141,0.7548828,0.3242188,0.7617188,0.7382813s-0.3242188,0.7548828-0.7382813,0.7617188l-20.5029297,0.3212891   C24.7578125,53.0585938,24.7539063,53.0585938,24.75,53.0585938z" fill="#37476C"/><path d="M22.1582031,40.5263672c-1.3222656,0-2.7177734-0.0957031-3.9775391-0.7841797   c-1.0927734-0.5986328-1.9277344-1.7080078-2.2333984-2.9667969c-0.2666016-1.0976563-0.0976563-2.1708984,0.4765625-3.0224609   c0.6425781-0.9501953,1.7431641-1.6083984,3.0996094-1.8525391c0.9199219-0.1640625,2.078125-0.1191406,3.1923828-0.0332031   c8.2480469,0.6269531,16.3554688,0.6220703,24.3935547,0.0136719c0.6806641-0.0507813,1.3144531-0.0986328,1.9511719-0.0986328   c0.9863281,0,1.7871094,0.1152344,2.5185547,0.3632813c1.4667969,0.4951172,3.0351563,1.8828125,3.0117188,3.7568359   c-0.0205078,1.6816406-1.3583984,3.0009766-2.6748047,3.5625c-1.3320313,0.5673828-2.7832031,0.5927734-4.0644531,0.6152344   l-24.9199219,0.4375C22.6757813,40.5224609,22.4169922,40.5263672,22.1582031,40.5263672z M21.0029297,33.28125   c-0.4560547,0-0.8535156,0.03125-1.2148438,0.0957031c-0.9404297,0.1689453-1.7128906,0.6123047-2.1201172,1.2158203   c-0.3359375,0.4960938-0.4287109,1.1464844-0.2636719,1.828125c0.2050781,0.84375,0.7783203,1.6123047,1.4970703,2.0048828   c1.1767578,0.6445313,2.6455078,0.6162109,4.0039063,0.5917969l24.9208984-0.4375   c1.1992188-0.0205078,2.4394531-0.0429688,3.5019531-0.4951172c0.8681641-0.3701172,1.75-1.1943359,1.7626953-2.2011719   c0.0136719-1.0751953-0.9921875-1.9794922-1.9931641-2.3173828c-0.5722656-0.1943359-1.21875-0.2841797-2.0371094-0.2841797   c-0.5800781,0-1.1855469,0.0449219-1.7705078,0.0898438c-8.25,0.6220703-16.4628906,0.6142578-24.5888672-0.0019531   C22.0703125,33.3222656,21.5351563,33.28125,21.0029297,33.28125z" fill="#37476C"/><path d="M15.7509766,36.6523438c-0.0283203,0-0.0566406-0.0019531-0.0849609-0.0048828   c-1.2822266-0.1445313-3.21875-0.3642578-4.4394531-1.6728516c-0.9501953-1.0195313-1.2207031-2.4169922-1.3603516-3.6494141   c-0.3193359-2.8046875-0.2080078-5.6298828,0.3300781-8.3984375c0.0791016-0.4052734,0.4726563-0.6660156,0.8798828-0.5927734   c0.40625,0.0791016,0.671875,0.4726563,0.5927734,0.8798828c-0.5097656,2.6171875-0.6142578,5.2890625-0.3125,7.9414063   c0.1123047,0.9902344,0.3154297,2.0966797,0.9677734,2.7958984c0.7783203,0.8349609,2.1044922,1.046875,3.5097656,1.2060547   c0.4121094,0.046875,0.7080078,0.4179688,0.6611328,0.8291016C16.4521484,36.3691406,16.1269531,36.6523438,15.7509766,36.6523438z   " fill="#37476C"/><path d="M12.0400391,23.7460938c-0.7177734,0-1.4814453-0.0234375-2.2285156-0.3037109   c-1.0419922-0.3886719-1.765625-1.2216797-1.8876953-2.1728516c-0.1679688-1.3095703,0.8076172-2.3730469,1.7841797-2.8066406   C10.5625,18.0839844,11.4677734,18.0517578,12.25,18.0517578l0.3310547,0.0019531l45.5693359,0.3759766   c0.6689453,0.0048828,2.7041016,0.0205078,3.3300781,1.5751953c0.484375,1.1982422-0.2822266,2.4804688-1.3027344,3.0283203   c-0.9228516,0.4941406-1.96875,0.4990234-2.8085938,0.5029297L12.0400391,23.7460938z M12.25,19.5517578   c-0.6279297,0-1.3476563,0.0224609-1.9326172,0.2822266c-0.4882813,0.2167969-0.9716797,0.7265625-0.9052734,1.2441406   c0.0566406,0.4453125,0.5048828,0.8027344,0.9248047,0.9599609c0.5126953,0.1914063,1.1220703,0.2080078,1.703125,0.2080078   l45.3212891-0.2099609c0.7099609-0.0029297,1.5136719-0.0068359,2.1074219-0.3251953   c0.4208984-0.2255859,0.7753906-0.7626953,0.6210938-1.1445313c-0.1669922-0.4140625-0.8232422-0.6279297-1.9511719-0.6367188   L12.25,19.5517578z" fill="#37476C"/><path d="M50.2177734,19.7470703c-0.0214844,0-0.0429688-0.0009766-0.0644531-0.0029297   c-0.4130859-0.0351563-0.71875-0.3984375-0.6835938-0.8105469c0.2695313-3.171875,0.2470703-6.3847656-0.0673828-9.546875   c-0.0996094-0.9931641-0.2597656-2.109375-0.9130859-2.7753906c-0.7470703-0.7617188-2.0527344-0.8671875-3.3261719-0.9082031   c-7.0878906-0.2314453-14.2773438-0.2890625-21.3681641-0.1699219C22.6503906,5.5517578,21.4794922,5.6279297,20.8349609,6.3125   c-0.6435547,0.6806641-0.6542969,1.8574219-0.6103516,3.0039063l0.3427734,9.0771484   c0.015625,0.4140625-0.3066406,0.7617188-0.7207031,0.7773438c-0.40625,0.0449219-0.7617188-0.3066406-0.7773438-0.7207031   l-0.3427734-9.0771484c-0.0419922-1.0820313-0.1113281-2.8945313,1.0175781-4.0898438   c1.0439453-1.109375,2.6259766-1.2265625,4.0253906-1.25c7.1152344-0.1191406,14.3310547-0.0615234,21.4423828,0.1699219   c1.578125,0.0517578,3.2128906,0.1992188,4.3486328,1.3574219c0.9941406,1.0146484,1.2099609,2.4296875,1.3339844,3.6777344   c0.3242188,3.2539063,0.3476563,6.5585938,0.0693359,9.8222656C50.9306641,19.4521484,50.6035156,19.7470703,50.2177734,19.7470703   z" fill="#37476C"/><path d="M23.90625,33.03125c-0.4111328,0-0.7470703-0.3320313-0.75-0.7441406l-0.0732422-8.8642578   c-0.0029297-0.4140625,0.3300781-0.7529297,0.7441406-0.7558594c0.0019531,0,0.0039063,0,0.0058594,0   c0.4111328,0,0.7470703,0.3320313,0.75,0.7441406l0.0732422,8.8642578   c0.0029297,0.4140625-0.3300781,0.7529297-0.7441406,0.7558594C23.9101563,33.03125,23.9082031,33.03125,23.90625,33.03125z" fill="#37476C"/><path d="M28.1875,33.4375c-0.0068359,0-0.0146484,0-0.0224609,0   c-0.4140625-0.0126953-0.7392578-0.3583984-0.7275391-0.7724609c0.0449219-1.5097656,0.0205078-3.0390625-0.0029297-4.5175781   c-0.0244141-1.4951172-0.0488281-3.0410156-0.0039063-4.5859375c0.0126953-0.4130859,0.3085938-0.7324219,0.7724609-0.7275391   c0.4140625,0.0126953,0.7392578,0.3583984,0.7275391,0.7724609c-0.0449219,1.5097656-0.0205078,3.0390625,0.0029297,4.5175781   c0.0244141,1.4951172,0.0488281,3.0410156,0.0039063,4.5859375C28.9248047,33.1162109,28.5917969,33.4375,28.1875,33.4375z" fill="#37476C"/><path d="M42.1708984,33.1660156c-0.0029297,0-0.0058594,0-0.0097656,0   c-0.4140625-0.0048828-0.7451172-0.3447266-0.7402344-0.7597656c0.0185547-1.4404297,0.0126953-2.9121094,0.0087891-4.3828125   c-0.0058594-1.4804688-0.0097656-2.9599609,0.0078125-4.4082031c0.0048828-0.4101563,0.3398438-0.7402344,0.75-0.7402344   c0.0029297,0,0.0058594,0,0.0097656,0c0.4140625,0.0048828,0.7451172,0.3447266,0.7402344,0.7597656   c-0.0185547,1.4404297-0.0126953,2.9121094-0.0087891,4.3828125c0.0058594,1.4804688,0.0097656,2.9599609-0.0078125,4.4082031   C42.9160156,32.8359375,42.5810547,33.1660156,42.1708984,33.1660156z" fill="#37476C"/><path d="M46.6357422,33.0839844c-0.4111328,0-0.7470703-0.3320313-0.75-0.7441406l-0.0722656-8.9169922   c-0.0029297-0.4140625,0.3300781-0.7519531,0.7441406-0.7558594c0.0019531,0,0.0039063,0,0.0058594,0   c0.4111328,0,0.7470703,0.3320313,0.75,0.7441406l0.0722656,8.9169922   c0.0029297,0.4140625-0.3300781,0.7519531-0.7441406,0.7558594C46.6396484,33.0839844,46.6376953,33.0839844,46.6357422,33.0839844   z" fill="#37476C"/><path d="M47.8339844,17.4960938c-0.3984375,0-0.7304688-0.3144531-0.7480469-0.7167969l-0.3417969-7.5820313   c-0.0185547-0.4140625,0.3017578-0.7646484,0.7148438-0.7832031c0.4150391-0.0371094,0.7646484,0.3007813,0.7832031,0.7148438   l0.3417969,7.5839844c0.0185547,0.4130859-0.3017578,0.7636719-0.7158203,0.7822266   C47.8574219,17.4960938,47.8457031,17.4960938,47.8339844,17.4960938z" fill="#37476C"/></g></svg>